<?xml version="1.0" standalone="no"?>
<!DOCTYPE svg PUBLIC "-//W3C//DTD SVG 20010904//EN"
 "http://www.w3.org/TR/2001/REC-SVG-20010904/DTD/svg10.dtd">
<svg version="1.0" xmlns="http://www.w3.org/2000/svg"
 width="758.000000pt" height="758.000000pt" viewBox="0 0 758.000000 758.000000"
 preserveAspectRatio="xMidYMid meet">
<metadata>
Created by potrace 1.14, written by Peter Selinger 2001-2017
</metadata>
<g transform="translate(0.000000,758.000000) scale(0.100000,-0.100000)"
fill="#000000" stroke="none">
<path d="M3667 7444 c-1 -1 -65 -5 -142 -9 -76 -3 -142 -8 -145 -10 -3 -1 -34
-5 -70 -9 -36 -4 -87 -11 -115 -16 -27 -5 -67 -12 -87 -14 -46 -7 -203 -41
-283 -63 -349 -92 -694 -240 -1005 -431 -70 -43 -289 -196 -335 -233 -222
-182 -388 -345 -579 -569 -186 -218 -402 -574 -530 -875 -10 -22 -21 -49 -27
-60 -81 -178 -193 -580 -225 -805 -2 -19 -6 -44 -9 -55 -2 -11 -6 -47 -10 -80
-3 -33 -8 -69 -10 -80 -7 -34 -18 -273 -18 -385 2 -318 40 -618 117 -910 20
-74 38 -142 40 -151 42 -164 200 -536 306 -720 247 -429 493 -724 890 -1063
241 -206 647 -443 980 -573 134 -52 325 -117 378 -128 9 -2 67 -15 127 -29
167 -39 196 -45 250 -52 28 -3 59 -8 70 -10 34 -7 127 -17 285 -30 137 -11
596 -3 620 11 3 1 35 6 72 9 74 8 76 8 233 37 458 84 930 274 1330 536 108 71
326 231 345 252 3 4 35 32 71 64 275 238 531 546 734 882 126 209 299 593 349
776 9 30 29 104 46 164 16 61 39 157 50 215 11 58 22 119 25 135 7 35 10 59
19 140 4 33 9 71 11 85 16 93 22 442 11 600 -14 193 -18 221 -47 395 -101 611
-368 1200 -766 1691 -173 215 -385 422 -633 618 -49 38 -192 136 -199 136 -5
0 -11 4 -13 8 -10 24 -518 305 -518 286 0 -3 -10 0 -22 8 -31 20 -219 93 -348
135 -190 62 -468 123 -670 148 -25 3 -63 7 -85 10 -83 10 -461 25 -468 19z"/>
</g>
</svg>
